<?xml version="1.0" standalone="no"?>
<!DOCTYPE svg PUBLIC "-//W3C//DTD SVG 20010904//EN"
 "http://www.w3.org/TR/2001/REC-SVG-20010904/DTD/svg10.dtd">
<svg version="1.0" xmlns="http://www.w3.org/2000/svg"
 width="2000.000000pt" height="1933.000000pt" viewBox="0 0 2000.000000 1933.000000"
 preserveAspectRatio="xMidYMid meet">
<metadata>
Created by potrace 1.16, written by Peter Selinger 2001-2019
</metadata>
<g transform="translate(0.000000,1933.000000) scale(0.100000,-0.100000)"
fill="#0066FF" stroke="none">
<path d="M0 16976 l0 -2354 23 -6 c26 -6 127 -105 127 -124 0 -4 9 -15 20 -25
11 -9 20 -23 20 -31 0 -8 6 -16 13 -19 23 -9 50 -121 43 -179 -10 -77 -27
-150 -40 -166 -47 -59 -72 -72 -168 -87 l-38 -6 0 -359 0 -360 22 -4 c13 -3
41 -7 62 -10 52 -7 106 -52 123 -101 19 -55 5 -153 -27 -185 -3 -3 -25 -47
-50 -99 -38 -79 -51 -97 -87 -118 -42 -24 -43 -26 -43 -78 0 -54 0 -54 29 -50
23 3 33 -2 46 -21 9 -14 19 -23 23 -20 5 3 14 1 22 -4 8 -5 18 -3 25 3 14 15
49 104 70 179 8 32 25 74 37 93 18 31 20 46 14 100 -6 63 -6 64 28 97 19 18
49 37 67 43 48 16 67 57 90 187 29 164 45 218 69 218 34 0 82 53 117 128 30
66 33 82 33 167 0 101 -9 118 -54 107 -39 -9 -53 -32 -92 -147 -49 -146 -67
-156 -109 -61 -12 28 -33 92 -46 142 -20 80 -21 96 -11 133 7 23 17 39 21 36
5 -2 14 2 21 10 7 8 44 24 83 36 43 13 91 36 123 61 70 52 138 78 178 67 36
-10 68 11 162 108 33 35 65 63 70 64 70 5 95 25 133 106 18 37 54 91 81 118
48 51 80 101 80 129 0 29 63 87 130 121 61 31 130 92 130 115 0 5 46 56 103
114 86 87 114 110 179 140 72 34 147 96 213 176 96 116 120 140 151 150 38 13
294 1 584 -26 91 -9 280 -18 420 -22 341 -7 338 -7 345 -1 3 3 -1 21 -9 39
-12 30 -12 35 7 57 34 38 167 62 253 43 38 -8 58 -20 89 -54 l40 -44 53 11
c45 9 64 8 140 -11 94 -25 132 -53 132 -98 0 -131 -246 -122 -325 11 -20 35
-31 45 -43 40 -10 -4 -43 -9 -75 -12 -32 -3 -60 -10 -63 -15 -7 -10 29 -48 45
-48 14 0 98 -84 99 -101 0 -7 6 -44 13 -81 13 -66 12 -67 -15 -106 -55 -80
-57 -99 -71 -617 -7 -264 -19 -661 -26 -883 -14 -450 -7 -597 33 -712 21 -60
23 -79 20 -265 -1 -110 -7 -225 -12 -255 -5 -30 -12 -149 -15 -265 -3 -115 -9
-237 -14 -270 -25 -172 -32 -234 -40 -385 -14 -257 -8 -560 13 -650 24 -106
15 -159 -35 -211 -21 -22 -38 -43 -37 -47 1 -4 -5 -20 -14 -37 -9 -16 -26 -61
-38 -100 -21 -63 -24 -97 -30 -350 -6 -262 -8 -283 -30 -330 -34 -77 -44 -293
-45 -1060 0 -443 -5 -733 -14 -855 -7 -102 -12 -241 -12 -310 1 -104 -5 -155
-34 -308 -19 -101 -35 -214 -35 -250 0 -37 -12 -159 -27 -271 -23 -182 -25
-211 -14 -267 10 -48 10 -79 2 -131 -18 -110 -31 -726 -17 -809 16 -89 6 -202
-35 -419 -17 -93 -33 -197 -35 -231 -7 -114 -57 -302 -106 -394 -30 -58 -33
-70 -32 -159 0 -53 3 -141 8 -196 13 -155 1 -205 -93 -396 -69 -139 -87 -188
-121 -319 -43 -169 -77 -261 -118 -324 -15 -23 -38 -63 -52 -89 -36 -69 -84
-90 -209 -91 -115 -1 -163 19 -210 88 -17 24 -53 62 -81 86 -38 32 -60 63 -92
128 -29 59 -58 102 -93 135 -27 26 -88 85 -135 130 -47 46 -110 96 -140 113
-37 19 -69 48 -99 87 -24 33 -74 92 -112 132 -80 86 -95 113 -124 221 -37 133
-141 314 -206 360 -25 17 -50 47 -66 78 -14 28 -38 65 -53 81 -18 19 -40 65
-60 124 -37 113 -51 140 -105 211 -23 30 -58 93 -79 140 -48 113 -111 191
-192 242 -38 24 -66 49 -69 62 -2 11 -6 32 -9 46 -6 33 2 -165 10 -257 11
-115 -16 -153 -107 -153 -64 0 -95 22 -114 82 -10 29 -21 57 -26 63 -16 17 -9
69 15 115 46 86 78 151 80 165 1 8 15 28 30 46 l28 31 24 -25 c13 -15 24 -35
24 -47 0 -11 4 -20 9 -20 14 0 20 38 22 136 2 89 2 90 -46 184 -27 52 -60 112
-73 134 -13 21 -43 82 -66 135 -22 53 -63 137 -91 186 -40 73 -143 348 -160
426 -56 262 -65 292 -140 464 -61 139 -91 195 -106 195 -5 0 -9 -109 -9 -260
0 -211 3 -260 13 -260 8 0 22 -9 31 -19 23 -25 13 -59 -20 -67 l-24 -6 0
-1443 c0 -1429 0 -1442 20 -1460 26 -23 26 -70 0 -92 -20 -17 -20 -30 -20
-1785 l0 -1768 3550 0 c1953 0 3550 2 3550 5 0 2 -28 23 -62 46 -35 23 -78 56
-97 72 -44 38 -77 51 -231 95 -137 38 -228 44 -280 17 -112 -58 -230 5 -249
133 -9 65 -32 78 -186 103 -198 33 -214 41 -353 177 -66 64 -132 137 -147 162
-40 63 -43 65 -120 85 -91 22 -112 37 -117 83 -4 28 3 52 29 102 33 64 33 66
19 108 -29 80 0 249 57 333 27 40 61 49 77 20 32 -61 42 -258 16 -330 -21 -57
-20 -84 3 -98 14 -9 24 -8 42 1 30 14 85 104 94 153 3 19 31 86 60 147 40 82
57 131 65 186 19 127 71 341 91 374 10 17 35 41 56 52 21 12 48 36 60 53 31
46 53 155 53 268 0 54 9 148 19 208 11 61 24 156 31 210 13 115 61 319 97 414
19 50 27 97 34 196 11 166 65 592 84 655 2 8 11 71 20 140 8 69 26 166 40 215
33 122 75 374 75 449 0 34 12 135 26 226 52 344 54 367 55 733 1 273 -3 375
-15 454 -12 83 -14 155 -9 375 6 289 -1 410 -37 598 -32 174 -70 439 -76 540
-3 52 -12 151 -20 220 -7 69 -18 226 -24 350 -8 177 -14 240 -31 295 -18 60
-22 112 -29 360 -5 161 -18 370 -29 470 -20 178 -29 214 -94 385 -24 64 -41
147 -72 365 -8 61 -27 155 -40 210 -31 122 -31 172 -4 306 28 138 22 215 -26
329 -27 65 -46 95 -81 126 l-46 42 -13 113 c-8 63 -21 195 -30 294 -21 244
-32 300 -62 336 -14 16 -28 27 -31 24 -8 -7 -138 260 -167 343 -13 35 -25 66
-29 69 -3 4 -6 15 -6 25 0 10 -4 18 -10 18 -5 0 -10 -4 -10 -9 0 -5 -9 -13
-20 -16 -11 -3 -20 -13 -20 -21 0 -9 -10 -14 -27 -14 -54 0 -83 79 -99 267 -5
67 -3 89 10 118 18 38 86 88 109 79 7 -2 22 5 32 16 30 33 27 145 -7 240 -15
41 -34 117 -43 167 -25 148 -51 220 -94 262 -25 25 -44 56 -55 92 -22 74 -46
193 -46 233 0 18 -11 70 -25 116 -16 55 -25 108 -25 154 0 105 -30 197 -85
265 -25 31 -59 82 -75 115 -28 55 -30 68 -34 203 -8 227 -38 299 -146 348 -52
23 -65 60 -51 144 15 93 34 117 126 161 44 21 100 57 125 80 66 61 112 80 196
80 39 0 94 7 123 16 59 17 337 44 391 37 19 -2 44 -8 55 -13 11 -4 43 -16 70
-25 28 -10 76 -31 107 -46 93 -47 201 -72 309 -73 90 -1 98 1 132 27 20 15 37
33 38 40 1 24 80 77 118 79 110 5 172 -26 224 -116 21 -36 37 -76 37 -94 0
-40 34 -66 103 -82 28 -6 77 -17 107 -25 30 -8 110 -26 178 -40 136 -29 256
-71 325 -115 54 -34 99 -50 239 -85 57 -15 119 -36 138 -47 19 -11 60 -29 90
-38 142 -47 275 -101 313 -126 74 -50 188 -101 347 -154 85 -29 173 -61 195
-72 93 -47 203 -120 245 -163 28 -29 72 -59 115 -80 39 -17 131 -66 205 -109
172 -97 220 -115 358 -132 141 -18 159 -25 178 -69 12 -29 22 -37 67 -50 29
-8 116 -22 193 -30 203 -22 211 -23 225 -14 19 11 21 200 3 264 -18 64 -127
212 -187 253 -48 34 -53 43 -96 182 -52 169 -109 312 -133 335 -12 13 -50 37
-83 54 -66 34 -68 33 -79 -36 -8 -54 -42 -112 -70 -118 -11 -2 -62 -6 -113 -8
-54 -2 -97 -8 -107 -16 -8 -7 -45 -13 -85 -14 -61 -2 -72 1 -96 23 -19 18 -25
32 -22 55 6 51 32 95 56 95 5 0 13 9 16 20 4 11 11 18 16 14 6 -3 15 -1 22 4
22 17 61 21 127 13 36 -4 79 -4 95 1 17 5 50 11 75 14 25 3 47 7 49 10 2 2 10
-1 17 -7 11 -9 11 -1 -1 37 -59 199 -164 398 -227 430 -50 25 -68 45 -93 99
-23 52 -31 61 -132 156 -44 42 -70 79 -100 142 -23 47 -63 110 -90 140 -26 30
-57 70 -68 88 -11 18 -43 47 -70 63 -28 17 -78 59 -112 94 -68 69 -111 92
-173 92 l-41 0 7 -37 c4 -21 27 -78 52 -126 l45 -88 -30 -42 c-58 -79 -157
-104 -224 -56 -18 12 -78 46 -133 75 -109 57 -142 88 -133 126 11 40 46 89 78
106 92 51 117 72 138 116 27 54 19 68 -46 85 -39 11 -79 44 -159 133 -25 28
-56 50 -80 58 -63 20 -100 55 -135 126 -18 36 -42 74 -53 84 -29 27 -131 103
-194 145 -29 20 -63 52 -76 73 -31 48 -50 65 -114 97 -63 31 -83 30 -93 -9 -4
-15 -16 -37 -25 -47 -24 -27 -98 -25 -144 2 -44 27 -52 40 -37 58 15 18 86 50
112 51 11 0 27 5 35 10 13 9 12 13 -8 29 -12 11 -41 22 -65 26 -42 7 -79 28
-127 70 -24 22 -120 77 -210 121 -65 31 -209 62 -330 70 -58 3 -113 10 -122
15 -11 6 -18 5 -21 -4 -2 -6 -5 -1 -5 13 -1 14 -3 33 -5 43 -4 21 -48 77 -60
77 -5 0 -27 13 -50 28 -23 16 -51 32 -62 37 -38 15 -241 45 -306 45 -36 0
-134 7 -217 15 -306 31 -394 57 -518 156 -70 55 -84 74 -84 113 0 27 19 76 29
76 17 0 41 64 49 131 16 126 47 164 182 219 41 17 101 46 134 64 34 18 82 41
108 51 26 10 65 33 86 51 59 50 64 52 407 114 118 21 132 26 146 51 18 35 129
92 219 114 8 2 52 18 98 35 46 16 149 44 230 60 231 47 279 58 412 97 117 33
180 57 180 68 0 3 -193 5 -429 5 l-429 0 -6 -25 c-3 -13 -23 -37 -44 -52 -20
-15 -39 -31 -42 -35 -3 -4 -22 -14 -42 -22 -31 -14 -42 -14 -75 -2 -101 36
-133 64 -133 116 0 20 -32 20 -3210 20 l-3210 0 0 -2354z m6356 2178 c5 -28
-39 -47 -81 -36 -37 10 -39 28 -5 46 39 20 82 15 86 -10z m-1846 -384 c44 -24
49 -133 8 -185 -17 -21 -28 -25 -74 -25 -90 0 -134 33 -134 102 0 46 19 78 60
99 38 21 110 25 140 9z m1095 -990 c120 -22 195 -41 249 -65 31 -14 62 -25 69
-25 24 0 128 -48 152 -70 13 -12 28 -19 33 -16 5 3 15 -1 22 -9 7 -8 21 -15
31 -15 10 0 21 -5 24 -10 4 -7 12 -7 25 0 10 5 34 10 52 10 32 0 45 5 120 48
63 36 108 45 156 32 24 -6 40 -15 37 -20 -4 -6 -1 -10 4 -10 18 0 12 -29 -8
-39 -15 -9 -18 -19 -15 -53 11 -114 11 -135 -1 -159 -25 -48 -107 -65 -140
-29 -10 11 -25 48 -35 82 -27 98 -48 107 -210 94 -97 -9 -122 -8 -133 3 -5 5
-16 7 -23 4 -8 -3 -20 -1 -27 5 -8 7 -57 7 -152 0 -170 -12 -183 -12 -215 -4
-42 11 -84 9 -121 -7 -55 -23 -108 -28 -171 -17 -32 6 -82 14 -110 19 -29 5
-65 15 -80 22 -34 15 -67 68 -59 92 10 28 63 54 138 67 91 15 94 15 118 24 42
16 70 32 88 49 19 19 60 18 182 -3z m1390 -209 c48 -21 57 -57 24 -87 -18 -16
-37 -19 -133 -19 -98 0 -117 3 -161 25 -34 17 -50 31 -50 45 0 47 236 74 320
36z m-2490 -653 l36 -31 -28 -23 c-34 -28 -83 -31 -114 -5 -21 17 -22 22 -11
45 11 25 40 44 69 45 7 1 29 -13 48 -31z m-369 -583 c28 -18 40 -58 28 -94
-14 -38 -78 -59 -133 -42 -81 24 -91 91 -21 139 39 26 83 25 126 -3z m-1753 6
c46 -18 143 -117 155 -160 23 -76 -22 -139 -128 -178 -80 -29 -129 -13 -203
66 -46 49 -47 51 -47 116 0 77 17 118 63 145 35 22 117 27 160 11z m2677 -89
c0 -4 14 -13 30 -19 30 -11 30 -12 25 -71 -3 -32 -10 -74 -15 -93 -6 -19 -10
-51 -10 -72 0 -118 -98 -171 -179 -96 -35 31 -68 38 -77 14 -3 -7 -25 -21 -48
-30 -46 -18 -88 -9 -112 23 -19 25 -17 81 6 127 31 65 51 84 100 93 36 7 57
20 99 61 29 29 63 56 75 61 27 11 106 13 106 2z m1251 -300 c10 -14 19 -21 19
-16 0 5 14 -20 32 -56 21 -45 31 -79 31 -110 -3 -254 -5 -259 -69 -280 -54
-18 -167 -9 -194 15 -34 31 -42 61 -25 100 7 19 12 35 9 35 -2 0 3 12 13 26
17 26 20 99 11 221 -2 33 2 47 22 68 20 22 32 25 77 24 44 -2 58 -7 74 -27z
m-3126 -59 c45 -25 57 -27 169 -27 112 -1 123 -3 154 -25 39 -30 40 -47 5 -77
-27 -23 -103 -43 -242 -64 -41 -6 -78 -13 -82 -16 -14 -9 -83 15 -112 38 -16
14 -32 39 -36 61 -8 31 -5 42 15 70 13 17 27 40 30 50 9 24 44 21 99 -10z
m6043 -194 c24 -15 94 -116 111 -161 12 -31 -2 -89 -25 -109 -27 -22 -116 -49
-162 -49 -35 0 -49 6 -70 28 -44 46 -62 71 -62 87 0 7 -5 17 -11 20 -13 8 -5
90 13 131 18 42 42 63 85 72 42 9 87 2 121 -19z m-4049 -18 c19 -12 5 -31 -24
-31 -31 0 -40 16 -18 29 22 13 25 13 42 2z m-4017 -621 c5 0 32 -21 58 -47 27
-27 60 -57 75 -68 20 -15 28 -32 32 -66 10 -87 -53 -104 -164 -44 -36 19 -77
35 -92 35 -15 0 -46 9 -68 20 -41 20 -41 20 -31 57 12 44 66 100 105 109 16 3
33 7 38 9 6 2 16 2 23 -1 8 -2 18 -4 24 -4z m3750 -683 c5 -10 12 -46 14 -80
10 -124 25 -199 53 -260 42 -89 61 -152 61 -198 0 -33 -6 -45 -35 -72 -19 -18
-39 -32 -44 -32 -4 0 -27 -19 -51 -42 -23 -24 -46 -43 -51 -43 -5 0 -9 -6 -9
-14 0 -11 -12 -14 -47 -12 -39 2 -50 -1 -59 -17 -11 -20 -12 -19 -27 9 -14 24
-16 26 -17 9 -1 -13 -6 -6 -16 19 -18 49 -27 172 -14 195 5 10 7 21 5 23 -10
10 -15 229 -6 224 5 -4 12 3 16 14 4 11 10 18 15 15 13 -8 46 61 65 136 33
131 45 156 80 169 21 8 49 -9 67 -43z m4941 -120 c18 -8 39 -22 47 -32 13 -15
12 -19 -5 -31 -22 -17 -68 -18 -96 -4 -25 14 -24 46 2 53 12 3 18 10 14 16 -8
14 -1 14 38 -2z m-4028 -3184 c11 -27 15 -64 13 -136 -3 -96 -4 -101 -30 -120
-24 -18 -32 -19 -68 -8 -22 6 -40 16 -40 21 0 19 -2 25 -12 38 -6 6 -7 12 -4
12 4 0 1 10 -6 23 -20 36 -22 115 -4 142 16 25 86 63 118 64 11 1 23 -13 33
-36z m-8 -978 c14 -10 23 -11 25 -4 2 6 15 -5 28 -24 13 -20 27 -34 31 -31 4
2 18 -16 32 -40 21 -38 23 -51 17 -88 -10 -53 -19 -78 -35 -98 -6 -8 -17 -34
-24 -57 -11 -40 -14 -43 -46 -43 -19 0 -35 5 -35 10 0 6 -9 19 -19 29 -33 33
-41 57 -41 125 0 37 -7 93 -16 126 -16 55 -16 61 0 84 19 29 51 34 83 11z
m-2107 -3287 c26 -43 26 -98 -1 -132 -27 -34 -45 -33 -65 6 -17 33 -14 85 8
133 15 34 34 32 58 -7z m292 -3091 c-6 -7 -9 -23 -5 -36 3 -12 1 -55 -5 -94
-7 -40 -16 -112 -22 -162 -29 -250 -54 -298 -140 -275 -22 6 -40 15 -40 20 0
6 -6 10 -13 10 -7 0 -24 19 -37 43 -21 35 -24 54 -24 122 2 99 20 197 44 244
33 64 166 159 203 145 8 -3 18 0 22 6 5 8 10 9 18 1 7 -7 7 -14 -1 -24z
m-2700 -24 c28 -24 58 -91 58 -129 0 -42 -27 -71 -73 -77 -33 -5 -43 -2 -65
20 -16 16 -22 28 -15 30 8 3 6 17 -8 46 -21 47 -24 89 -8 118 8 16 18 19 50
15 23 -2 50 -13 61 -23z m352 -266 c25 -18 17 -51 -14 -55 -31 -5 -53 23 -39
49 11 22 28 24 53 6z m1456 -392 c18 -21 -2 -203 -27 -245 -19 -30 -64 -80
-73 -80 -15 0 -60 50 -79 89 -25 49 -22 82 17 161 19 39 37 60 62 72 43 22 83
23 100 3z m1674 -247 l43 -43 6 -95 c6 -105 13 -131 31 -124 15 6 36 -58 36
-109 0 -19 -9 -56 -20 -82 -16 -38 -24 -46 -40 -42 -11 3 -20 1 -20 -4 0 -21
-21 -6 -42 31 -13 22 -28 40 -34 40 -6 0 -16 11 -22 25 -6 14 -16 25 -22 25
-5 0 -10 9 -10 19 0 10 -7 22 -16 25 -14 6 -16 22 -10 129 5 113 21 242 25
207 1 -9 8 -4 17 13 8 15 19 27 25 27 5 0 29 -19 53 -42z m665 -130 c19 -48
53 -154 58 -178 2 -14 -5 -47 -16 -73 -12 -27 -21 -58 -21 -70 0 -25 36 -88
56 -100 31 -18 -2 -141 -35 -135 -24 5 -70 88 -81 147 -13 72 -13 360 1 400
13 37 26 40 38 9z m264 -94 c-1 -43 -6 -92 -12 -107 -12 -31 -34 -32 -40 -1
-2 10 -8 22 -13 25 -14 9 8 129 28 151 30 32 39 16 37 -68z m120 -322 c34 -30
11 -182 -28 -182 -21 0 -64 47 -70 77 -4 15 -8 37 -10 47 -5 22 19 72 37 79
18 7 50 -2 71 -21z m-280 -381 c2 -79 -2 -112 -12 -124 -7 -10 -16 -17 -20
-17 -7 0 -24 39 -41 95 -7 22 -20 48 -29 58 -28 33 -24 83 11 123 l31 36 29
-31 c29 -30 30 -35 31 -140z m-1118 -1278 c0 -6 3 -14 7 -18 4 -4 -5 -25 -19
-46 -21 -32 -28 -37 -44 -29 -10 6 -21 16 -25 22 -11 18 -5 71 9 80 17 12 72
5 72 -9z m1563 -344 c55 -13 77 -31 69 -53 -5 -12 -20 -16 -57 -16 -63 0 -90
13 -90 44 0 39 7 42 78 25z"/>
<path d="M12042 19320 c9 -6 58 -19 110 -30 182 -38 234 -50 288 -65 30 -9 63
-16 74 -16 10 0 16 -3 12 -6 -9 -9 57 -51 140 -89 64 -29 86 -34 152 -34 95 0
162 -24 462 -160 47 -21 101 -42 120 -45 80 -16 197 -71 303 -143 136 -92 213
-124 381 -163 150 -33 222 -65 326 -142 43 -32 98 -63 130 -73 80 -24 166 -65
238 -112 57 -37 82 -45 200 -68 23 -5 128 -129 159 -187 9 -18 18 -66 21 -110
4 -71 2 -82 -27 -142 -39 -79 -124 -171 -166 -180 -134 -27 -330 -119 -435
-204 -69 -57 -99 -74 -250 -145 -30 -14 -86 -44 -125 -66 -38 -22 -94 -47
-122 -55 -40 -12 -59 -25 -80 -53 -46 -61 -130 -138 -180 -163 -56 -28 -206
-169 -289 -271 -32 -39 -77 -92 -99 -116 -22 -24 -60 -74 -85 -110 -25 -36
-71 -86 -103 -111 -57 -45 -227 -235 -227 -254 0 -14 -45 -100 -66 -128 -11
-13 -48 -54 -84 -90 -36 -36 -77 -82 -92 -101 -21 -28 -43 -41 -95 -59 -37
-12 -90 -33 -118 -46 -62 -28 -93 -29 -156 -2 -57 25 -84 59 -149 189 -47 94
-75 130 -101 130 -45 0 -56 -111 -26 -255 10 -44 19 -127 21 -185 3 -78 11
-126 30 -185 14 -44 26 -90 26 -102 0 -12 -14 -52 -32 -90 -39 -85 -48 -167
-33 -290 13 -95 9 -138 -19 -232 -30 -102 -65 -152 -167 -236 -45 -38 -83 -78
-94 -101 -21 -45 -25 -118 -8 -135 7 -7 54 -15 105 -19 118 -9 219 -40 282
-85 87 -62 114 -118 126 -265 14 -165 36 -209 143 -282 14 -10 35 -39 48 -65
21 -41 24 -63 24 -153 0 -86 3 -111 18 -130 10 -14 29 -40 42 -58 13 -18 29
-59 35 -90 6 -31 25 -91 42 -132 17 -41 44 -111 59 -154 16 -44 47 -113 70
-155 47 -88 62 -148 89 -353 11 -84 25 -163 30 -175 5 -12 33 -33 62 -47 72
-34 97 -64 144 -170 28 -64 58 -109 105 -164 37 -41 81 -103 99 -138 40 -79
119 -205 143 -229 29 -29 48 -61 53 -91 19 -112 26 -139 44 -165 20 -27 32
-34 54 -30 4 1 14 -4 22 -10 8 -6 14 -8 14 -3 0 5 4 3 9 -5 5 -8 8 -57 6 -109
-4 -90 -2 -98 29 -166 18 -39 37 -87 41 -106 6 -30 52 -165 87 -254 7 -17 31
-51 55 -78 33 -38 48 -66 68 -135 51 -173 60 -191 145 -279 85 -89 74 -66 140
-294 18 -62 26 -74 71 -110 28 -22 54 -40 58 -40 4 0 26 18 48 39 30 30 46 38
62 34 20 -5 61 -51 61 -70 0 -16 90 -156 125 -195 47 -53 55 -70 55 -116 0
-37 -4 -43 -45 -69 -82 -51 -75 -92 38 -195 87 -80 135 -156 156 -250 11 -46
53 -127 93 -178 11 -14 32 -52 48 -86 18 -41 40 -70 66 -90 113 -84 160 -134
223 -241 60 -100 103 -162 165 -238 14 -17 38 -55 54 -85 17 -33 47 -68 73
-88 121 -90 164 -126 286 -239 73 -68 138 -123 143 -123 14 0 320 -311 375
-380 71 -91 84 -99 181 -119 49 -11 110 -28 137 -40 26 -11 100 -37 165 -57
145 -45 170 -60 216 -130 54 -82 95 -97 256 -97 154 -1 185 9 265 83 66 62 69
62 217 84 106 16 164 41 303 130 117 77 150 133 200 351 16 69 16 69 -6 86
-13 9 -28 15 -34 13 -22 -9 -38 24 -31 61 4 19 11 35 16 35 6 0 10 4 10 10 0
12 50 85 51 74 1 -18 20 41 33 106 18 83 44 136 85 173 25 22 35 25 50 18 10
-6 21 -8 24 -5 2 3 10 -9 16 -27 9 -26 7 -46 -10 -109 -23 -86 -63 -144 -115
-166 -37 -15 -49 -45 -49 -119 0 -61 8 -63 86 -23 73 38 109 72 187 176 86
116 155 239 193 348 38 107 61 154 105 215 54 74 159 342 203 514 21 85 120
292 163 344 29 34 37 68 63 261 27 204 53 319 92 402 43 93 77 128 166 168 38
17 94 48 125 68 52 35 60 37 149 40 l93 4 0 187 0 187 -50 14 c-27 7 -50 17
-50 22 0 4 -7 8 -15 8 -8 0 -15 4 -15 8 0 4 -8 8 -17 9 -10 1 -31 3 -46 6 -18
3 -31 -1 -34 -9 -3 -8 -9 -12 -13 -9 -5 3 -18 -10 -30 -29 -14 -23 -26 -33
-36 -29 -9 3 -14 0 -12 -8 5 -24 -72 -33 -117 -14 -22 10 -34 19 -27 22 10 4
10 8 0 20 -19 23 -20 169 -1 212 8 20 16 45 18 56 7 39 14 65 24 82 6 12 5 25
-4 43 -16 32 -72 51 -163 56 -35 2 -72 9 -83 15 -11 6 -71 14 -132 19 -100 8
-123 14 -220 54 -146 62 -197 73 -367 81 -184 8 -350 27 -576 65 -155 27 -192
37 -274 75 -61 28 -131 51 -195 64 -55 11 -158 40 -230 65 -71 25 -136 46
-144 46 -8 0 -53 18 -100 39 -52 24 -105 41 -135 43 l-49 3 -3 -40 c-6 -74 -8
-85 -15 -85 -4 0 -5 -9 -2 -20 6 -22 -11 -27 -24 -7 -4 7 -25 21 -45 32 -21
11 -38 23 -38 27 0 5 -6 8 -14 8 -16 0 -46 26 -46 40 0 13 48 36 92 44 41 7
61 26 29 26 -12 0 -21 4 -21 8 0 9 -207 53 -265 57 -16 2 -37 -1 -46 -6 -20
-10 -67 20 -64 42 2 10 -8 22 -22 28 -18 8 -23 8 -17 0 5 -8 3 -9 -5 -4 -7 4
-28 8 -46 10 -73 4 -109 64 -48 80 55 13 67 48 31 89 -29 33 -220 131 -305
157 -64 20 -77 30 -138 105 -32 39 -113 84 -155 84 -76 0 -163 55 -175 109 -8
38 -38 64 -137 120 -46 26 -106 62 -134 80 -27 17 -67 34 -87 38 -33 5 -37 3
-37 -17 0 -13 17 -40 42 -64 91 -91 81 -139 -34 -160 -69 -12 -246 43 -268 85
-12 21 1 113 20 150 15 27 69 59 102 59 15 0 29 4 33 9 3 5 -23 41 -57 80 -63
70 -180 164 -305 245 -79 50 -191 163 -221 221 -22 44 -64 89 -169 182 -88 78
-107 85 -197 77 -65 -6 -73 -4 -91 16 -16 18 -20 34 -18 83 3 67 -16 143 -45
185 -11 15 -29 46 -41 70 -13 25 -42 57 -72 79 -27 19 -65 59 -84 87 -37 56
-119 144 -181 193 -27 20 -47 48 -59 80 -10 26 -30 64 -46 83 -29 38 -128 103
-160 105 -11 1 -25 8 -32 15 -10 12 -9 12 6 0 17 -12 18 -11 13 11 -3 13 -8
40 -10 59 -10 89 -144 296 -221 341 -28 17 -37 32 -65 122 -76 238 -81 314
-26 430 19 39 38 90 41 112 8 40 79 219 97 242 5 6 38 23 73 37 35 14 93 43
129 65 36 22 91 54 123 70 32 16 72 43 88 61 19 20 100 67 214 123 198 98 214
111 262 217 13 29 32 53 48 61 27 13 30 14 96 24 57 9 122 40 167 81 63 57 97
66 258 74 170 8 187 15 295 110 88 78 107 88 197 100 132 18 271 50 393 92 66
22 188 63 270 91 83 28 153 55 157 61 5 7 58 11 150 11 128 0 147 -2 178 -21
19 -12 73 -34 120 -49 47 -15 116 -40 154 -57 93 -40 134 -52 326 -88 195 -38
229 -51 305 -120 63 -57 136 -94 255 -130 41 -12 88 -29 104 -37 15 -8 102
-88 193 -179 136 -135 174 -167 217 -183 28 -10 54 -17 59 -14 17 10 5 42 -30
78 -21 22 -59 73 -85 114 -38 59 -48 84 -48 118 0 24 6 45 13 50 8 4 16 15 19
24 3 9 35 26 70 38 34 12 81 30 103 40 62 27 109 26 133 -3 16 -22 18 -33 10
-87 -4 -34 -10 -65 -13 -67 -3 -3 2 -14 12 -24 11 -13 12 -18 3 -18 -7 0 18
-29 55 -65 38 -36 65 -65 61 -65 -4 0 10 -20 32 -45 48 -54 63 -91 50 -124 -7
-21 -12 -22 -41 -15 -52 13 -107 10 -179 -10 -47 -13 -68 -23 -68 -34 0 -19
45 -100 98 -175 23 -33 51 -93 67 -142 18 -56 36 -93 53 -109 15 -13 47 -43
72 -66 25 -23 59 -48 75 -55 48 -21 65 -47 87 -131 24 -96 35 -118 88 -171 53
-56 73 -56 106 2 7 13 22 20 40 20 24 0 38 -12 80 -69 29 -37 60 -86 70 -107
11 -21 22 -39 25 -39 4 0 12 -13 19 -29 6 -16 26 -36 43 -44 17 -9 32 -24 34
-34 19 -106 14 -121 -31 -103 -21 8 -26 16 -26 44 0 44 -22 53 -72 32 -22 -10
-29 -31 -19 -59 5 -13 12 -41 15 -61 11 -68 45 -116 83 -116 13 0 34 -5 46
-12 12 -7 37 -13 54 -14 39 -3 91 -32 98 -55 3 -9 -6 -37 -21 -62 -29 -53 -29
-60 9 -207 14 -56 46 -137 75 -195 41 -79 60 -134 91 -265 25 -101 48 -174 61
-190 98 -123 159 -266 181 -430 24 -168 39 -223 79 -275 21 -27 44 -63 53 -80
25 -51 109 -385 122 -490 4 -27 11 -68 15 -90 5 -22 11 -54 15 -72 14 -83 115
-314 149 -342 15 -12 16 11 16 249 0 239 -2 264 -17 276 -12 9 -14 13 -5 14 9
0 11 7 7 19 -3 11 -1 22 5 26 6 4 10 124 10 354 l0 349 -45 11 c-25 6 -53 21
-63 32 -9 12 -23 27 -29 34 -25 26 -4 132 27 136 6 1 13 3 18 4 4 1 26 5 50
10 l42 8 0 3218 0 3219 -3580 0 c-3424 0 -3580 -1 -3580 -18 0 -28 -30 -63
-67 -78 -18 -8 -74 -17 -122 -19 -115 -6 -137 9 -140 98 -1 16 -19 17 -243 17
-163 -1 -237 -4 -226 -10z m2827 -404 c31 -37 48 -158 31 -211 -6 -19 -15 -35
-19 -35 -4 0 -13 -11 -19 -26 -7 -14 -26 -30 -43 -36 -20 -7 -27 -13 -19 -18
8 -5 1 -11 -18 -18 -32 -11 -116 3 -107 18 5 7 -22 23 -70 40 -38 14 -132 90
-140 113 -4 10 -1 24 5 32 8 9 8 15 2 15 -7 0 -6 9 1 25 7 14 15 25 20 25 4 0
7 5 7 10 0 6 9 20 20 32 16 18 40 24 132 34 158 16 203 17 217 0z m274 -2053
c12 -11 -14 -33 -39 -33 -26 0 -30 10 -12 28 13 13 41 16 51 5z m4004 -680
c23 -35 23 -107 -1 -155 -22 -45 -70 -60 -108 -34 -12 9 -18 16 -13 16 5 0 0
6 -10 14 -29 21 -32 125 -4 160 17 22 29 26 69 26 43 0 52 -4 67 -27z m-457
-937 c0 -8 -8 -24 -18 -36 l-19 -23 -32 29 c-39 35 -40 75 -1 85 19 5 30 1 48
-18 12 -13 22 -30 22 -37z m-6240 43 c0 -5 5 -7 10 -4 11 7 13 -15 4 -39 -3
-9 -10 -13 -15 -10 -5 3 -9 1 -9 -3 0 -5 -11 -9 -25 -9 -18 0 -25 5 -25 21 0
16 -2 17 -10 5 -5 -8 -10 -11 -10 -7 0 5 8 18 17 31 17 23 63 34 63 15z m180
-291 c0 -7 -5 -20 -10 -28 -12 -19 -35 2 -27 24 7 19 37 21 37 4z m-226 -228
c66 -25 66 -98 1 -126 -69 -28 -118 11 -99 78 6 19 20 38 34 45 30 15 32 15
64 3z m461 -390 c39 -12 76 -26 82 -32 7 -6 20 -8 28 -4 9 3 15 0 15 -9 0 -8
4 -15 10 -15 5 0 12 -17 16 -37 7 -40 39 -152 54 -190 14 -35 -11 -95 -44
-106 -41 -14 -113 34 -147 97 -14 27 -36 57 -50 68 -59 47 -76 60 -102 79 -15
12 -26 24 -23 27 4 3 -1 13 -9 22 -25 27 -30 86 -11 114 18 28 61 37 91 20 11
-7 52 -22 90 -34z m-135 -446 c17 -20 2 -67 -23 -72 -24 -5 -47 16 -47 42 0
42 45 61 70 30z m6986 -1020 c19 -9 34 -23 34 -30 0 -8 5 -14 10 -14 6 0 10
-23 10 -51 0 -87 -80 -176 -125 -139 -36 30 -50 181 -21 225 19 29 44 31 92 9z
m-6484 -479 c31 -35 41 -89 24 -129 -20 -48 -49 -55 -81 -19 -52 59 -59 173
-10 173 8 0 15 5 15 11 0 13 26 -4 52 -36z m1290 -454 c34 -38 35 -55 6 -75
-51 -36 -150 1 -156 57 -5 45 14 60 72 54 40 -3 55 -11 78 -36z m334 -125 c10
-8 16 -17 13 -21 -4 -3 -3 -24 2 -46 11 -48 -5 -118 -33 -149 -17 -18 -28 -21
-61 -17 -50 7 -74 35 -82 97 -4 25 -9 52 -11 61 -3 9 2 24 10 32 8 8 13 17 11
21 -3 3 -2 4 2 1 3 -3 11 0 18 5 10 8 72 26 101 29 5 1 19 -5 30 -13z m-1391
-46 c18 -30 -39 -82 -64 -57 -15 15 -14 54 2 60 21 9 56 7 62 -3z m1059 -807
c35 -35 40 -60 21 -106 -11 -27 -21 -37 -38 -37 -41 0 -64 31 -65 89 -2 79 33
103 82 54z m945 -2358 c29 -15 61 -68 61 -103 0 -43 13 -83 25 -78 7 2 16 2
20 -2 4 -4 19 -7 33 -8 15 0 42 -8 60 -17 17 -10 32 -14 32 -10 1 5 9 -8 19
-27 11 -19 17 -38 14 -42 -2 -5 0 -8 5 -8 6 0 8 -9 5 -20 -3 -11 -9 -20 -14
-20 -5 0 -9 -5 -9 -11 0 -6 -7 -17 -15 -25 -8 -9 -15 -12 -15 -8 0 5 -5 3 -10
-2 -17 -17 -112 -4 -132 17 -10 9 -26 20 -38 24 -15 5 -19 12 -15 28 4 17 -2
27 -24 41 -16 11 -27 25 -24 32 2 7 -11 20 -30 29 -100 47 -130 171 -52 213
28 16 71 15 104 -3z m1752 -56 c22 -22 49 -79 49 -104 0 -25 -38 -55 -70 -55
-48 0 -80 39 -80 96 0 77 53 111 101 63z m1657 -236 c6 -15 12 -38 12 -52 -1
-27 -28 -95 -29 -74 -1 7 -7 10 -15 7 -28 -11 -36 98 -9 128 21 24 26 23 41
-9z m-1119 -351 c3 -4 18 -15 34 -25 21 -13 27 -25 27 -51 0 -62 -12 -97 -36
-108 -13 -6 -24 -17 -24 -25 0 -7 -7 -13 -15 -13 -8 0 -15 -5 -15 -10 0 -19
-39 -53 -54 -47 -8 3 -16 0 -19 -7 -6 -15 -51 -14 -70 2 -8 7 -16 9 -20 6 -16
-16 -51 111 -41 151 4 15 11 22 20 18 8 -3 14 1 14 11 0 22 20 57 49 82 18 17
37 22 84 23 33 1 63 -2 66 -7z m-1581 -289 c38 -36 74 -102 66 -125 -4 -12 0
-18 11 -18 12 0 15 -6 10 -20 -4 -12 -2 -27 5 -35 7 -9 8 -15 1 -20 -6 -3 -9
-19 -7 -36 2 -19 -2 -33 -13 -39 -9 -5 -12 -10 -7 -10 5 0 -2 -9 -15 -21 -20
-17 -32 -19 -69 -14 -55 8 -69 19 -69 53 1 15 -1 39 -4 54 -2 14 -1 32 4 39 4
7 -2 27 -16 47 -13 20 -22 39 -19 44 3 4 -1 8 -8 8 -9 0 -9 3 2 10 12 8 12 10
-5 10 -12 0 -16 3 -9 8 6 4 17 25 24 47 7 22 15 34 17 28 4 -10 10 -9 26 2 30
21 41 19 75 -12z m-318 -152 c0 -8 -6 -11 -15 -7 -8 3 -15 1 -15 -5 0 -6 -4
-7 -10 -4 -5 3 -10 13 -10 21 0 8 5 12 10 9 6 -3 13 1 16 10 6 13 8 14 15 3 5
-7 9 -19 9 -27z"/>
<path d="M10536 13731 c-14 -22 5 -49 47 -65 53 -20 71 -20 87 -1 26 31 -7 58
-89 71 -24 4 -41 2 -45 -5z"/>
<path d="M0 12177 c0 -191 1 -209 15 -190 27 39 48 144 48 246 0 103 -11 142
-44 150 -18 5 -19 -4 -19 -206z"/>
<path d="M19934 10355 c3 -10 -1 -15 -12 -15 -26 -1 28 -29 56 -30 18 0 22 5
22 30 0 28 -3 30 -36 30 -28 0 -35 -3 -30 -15z"/>
<path d="M19986 8333 c-3 -21 -6 -60 -6 -88 0 -54 -61 -319 -84 -363 -38 -75
-80 -301 -106 -568 -12 -125 -30 -205 -64 -281 -13 -28 -32 -77 -41 -110 -9
-32 -34 -97 -55 -145 -52 -115 -66 -193 -52 -288 10 -69 40 -132 56 -120 23
17 36 -93 16 -131 -6 -10 -24 -26 -40 -34 -26 -14 -29 -14 -24 0 12 31 -6 13
-33 -32 -15 -27 -44 -68 -64 -93 -31 -39 -159 -288 -159 -311 0 -4 -14 -47
-32 -96 -23 -64 -43 -100 -74 -133 -24 -26 -60 -79 -79 -119 -57 -115 -136
-230 -206 -301 -57 -57 -68 -75 -91 -145 -15 -44 -36 -100 -47 -125 -22 -48
-27 -105 -12 -142 5 -13 28 -43 50 -68 23 -25 41 -49 41 -55 0 -5 16 -28 35
-50 19 -22 39 -46 46 -53 6 -7 9 -14 8 -15 -32 -19 -121 -42 -184 -47 -44 -4
-99 -12 -122 -19 -72 -20 -123 16 -126 90 -1 23 -7 44 -12 46 -12 4 -145 -104
-145 -118 0 -19 -250 -260 -310 -298 -34 -22 -99 -54 -144 -71 -44 -17 -110
-46 -146 -65 -115 -58 -247 -94 -408 -110 -183 -19 -190 -21 -266 -56 -94 -43
-219 -66 -406 -74 -244 -10 -368 7 -720 101 -91 24 -229 59 -308 78 -121 29
-153 41 -213 80 -45 28 -92 49 -127 57 -169 34 -314 99 -407 180 -65 57 -88
68 -208 98 -51 12 -122 40 -170 66 -45 24 -111 52 -146 61 -35 9 -73 24 -84
35 -11 10 -47 38 -81 61 -33 24 -83 64 -111 89 -44 41 -107 91 -195 155 -17
12 -52 24 -86 28 -31 4 -89 17 -128 31 -39 13 -92 27 -119 31 -40 5 -48 10
-53 33 -12 51 -46 136 -62 155 -9 10 -33 29 -52 41 -20 12 -79 63 -131 113
-102 95 -86 87 -266 138 -69 19 -149 85 -189 154 -18 30 -56 80 -87 110 -30
30 -62 73 -71 95 -30 73 -169 195 -221 195 -42 0 -55 -29 -55 -121 0 -82 9
-134 48 -274 11 -38 22 -86 25 -105 2 -19 10 -63 17 -98 11 -55 10 -73 -6
-145 -15 -64 -19 -121 -19 -262 0 -171 2 -186 33 -302 37 -140 37 -145 16
-278 -14 -87 -15 -144 -7 -440 8 -316 10 -343 30 -388 12 -26 29 -54 38 -63
17 -17 16 -11 19 -189 2 -116 6 -148 44 -295 60 -238 72 -308 79 -470 5 -119
3 -160 -12 -225 -27 -124 -18 -195 44 -345 54 -130 94 -279 131 -490 13 -68
37 -165 55 -215 18 -50 43 -147 54 -215 l21 -125 44 -42 c59 -54 75 -111 85
-283 7 -117 12 -142 35 -187 30 -60 32 -92 10 -138 -20 -43 -46 -60 -124 -80
-70 -18 -280 -116 -299 -139 -12 -15 315 -16 3608 -16 l3621 0 0 4185 c0 2302
-2 4185 -4 4185 -2 0 -6 -17 -10 -37z m-1843 -4471 c23 -24 25 -31 17 -65 -19
-85 -76 -113 -200 -98 -93 12 -106 19 -105 55 2 37 22 55 109 98 98 47 141 49
179 10z m-870 -177 c46 -12 30 -38 -32 -52 -100 -22 -187 14 -133 56 19 14 34
16 80 10 31 -4 70 -10 85 -14z m73 -886 c22 -10 45 -19 51 -19 5 0 24 -7 42
-16 31 -15 31 -17 15 -35 -27 -30 -110 -48 -209 -46 -85 2 -90 4 -104 29 -13
23 -13 27 2 43 9 9 17 13 17 9 0 -4 8 2 18 12 28 30 75 52 102 47 14 -3 43
-14 66 -24z"/>
</g>
</svg>
