<?xml version="1.0" standalone="no"?>
<!DOCTYPE svg PUBLIC "-//W3C//DTD SVG 20010904//EN"
 "http://www.w3.org/TR/2001/REC-SVG-20010904/DTD/svg10.dtd">
<svg version="1.0" xmlns="http://www.w3.org/2000/svg"
 width="800.000000pt" height="773.000000pt" viewBox="0 0 800.000000 773.000000"
 preserveAspectRatio="xMidYMid meet">
<metadata>
Created by potrace 1.16, written by Peter Selinger 2001-2019
</metadata>
<g transform="translate(0.000000,773.000000) scale(0.100000,-0.100000)"
fill="#0066FF" stroke="none">
<path d="M3573 7715 c-6 -17 -73 -55 -95 -55 -7 0 -25 -6 -40 -14 -37 -19 -65
-24 -202 -36 -130 -11 -193 -24 -246 -50 -19 -10 -71 -25 -115 -35 -44 -9
-110 -30 -147 -46 -36 -16 -76 -29 -89 -29 -30 0 -137 -53 -178 -89 l-33 -29
43 -28 c32 -20 63 -29 119 -35 88 -9 117 -19 174 -59 23 -17 74 -39 115 -50
40 -12 85 -27 100 -34 14 -7 44 -17 66 -21 22 -4 60 -22 85 -40 25 -18 70 -45
100 -60 30 -15 72 -43 93 -61 20 -19 41 -34 46 -34 6 0 30 -17 55 -37 51 -43
97 -75 144 -100 45 -24 61 -7 43 43 -16 45 -9 53 60 64 30 5 79 17 109 28 48
16 58 25 77 63 12 24 22 51 21 59 -1 31 2 41 12 35 6 -4 41 5 79 20 56 21 87
26 171 28 86 1 104 4 115 20 7 10 33 31 59 47 38 25 46 35 46 60 0 24 -7 35
-35 51 -40 24 -41 30 -18 69 16 28 16 29 -8 49 -35 28 -17 36 55 23 74 -14
202 -16 210 -3 3 4 -3 16 -14 26 -24 22 -25 46 -5 86 15 28 15 30 -7 38 -13 4
-59 13 -102 20 -105 15 -186 62 -186 108 l0 23 -335 0 c-293 0 -336 -2 -342
-15z m680 -485 c-2 -39 -9 -60 -25 -77 -25 -26 -60 -30 -78 -8 -19 23 -5 43
32 47 31 3 33 5 34 43 1 55 2 57 22 53 14 -3 17 -13 15 -58z m-118 31 c10 -17
-12 -21 -25 -6 -10 12 -10 15 3 15 9 0 18 -4 22 -9z"/>
<path d="M3901 7024 c0 -11 3 -14 6 -6 3 7 2 16 -1 19 -3 4 -6 -2 -5 -13z"/>
<path d="M3702 6667 c-17 -20 13 -59 41 -55 17 2 22 10 22 33 0 25 -4 31 -26
33 -14 2 -31 -3 -37 -11z"/>
<path d="M6449 6391 c-13 -10 -42 -21 -64 -25 -106 -16 -133 -18 -139 -7 -11
18 -76 13 -124 -10 -49 -24 -61 -43 -44 -69 9 -15 6 -25 -19 -56 -24 -30 -30
-47 -27 -76 3 -53 -12 -64 -46 -33 -15 14 -29 25 -31 25 -3 0 -23 -16 -45 -36
-40 -36 -42 -37 -81 -25 -46 14 -75 8 -89 -20 -15 -27 -5 -38 41 -45 32 -5 39
-11 39 -30 0 -25 -20 -50 -48 -58 -10 -4 -26 -22 -35 -42 -29 -61 -88 -123
-122 -130 -20 -3 -36 -16 -47 -35 -9 -16 -25 -29 -34 -29 -14 0 -16 -8 -11
-46 4 -39 13 -55 59 -103 30 -31 66 -72 78 -91 13 -19 56 -66 96 -105 39 -38
79 -83 87 -100 8 -16 45 -54 81 -84 36 -30 66 -58 66 -62 0 -5 24 -24 53 -44
28 -20 86 -61 127 -91 41 -30 105 -74 143 -99 37 -25 75 -54 84 -65 10 -11 33
-25 53 -31 19 -7 51 -23 70 -35 19 -13 42 -24 51 -24 10 0 36 -15 58 -34 23
-19 67 -44 99 -55 31 -12 80 -32 107 -45 28 -13 79 -31 115 -40 36 -8 112 -30
170 -49 200 -65 293 -88 379 -94 47 -3 114 -13 149 -24 61 -18 105 -17 144 3
31 15 30 67 -2 211 -16 76 -30 153 -30 173 0 19 -9 52 -19 72 -10 20 -26 71
-34 112 -17 83 -61 207 -82 230 -7 8 -17 29 -21 45 -4 17 -15 47 -26 68 -10
20 -30 70 -44 110 -15 39 -34 83 -44 97 -38 55 -97 158 -112 197 -19 47 -82
149 -128 208 -17 22 -46 63 -63 90 -41 64 -185 214 -262 273 -57 43 -96 61
-293 127 -88 30 -150 32 -183 6z m-84 -291 c3 -5 -1 -10 -10 -10 -9 0 -13 5
-10 10 3 6 8 10 10 10 2 0 7 -4 10 -10z m-515 -429 c0 -28 -22 -47 -41 -35
-10 6 -12 47 -2 57 3 4 15 7 25 7 13 0 18 -8 18 -29z"/>
<path d="M5941 6284 c-30 -21 -26 -34 9 -34 17 0 30 2 30 4 0 2 3 11 6 19 8
21 -20 28 -45 11z"/>
<path d="M5618 6099 c-10 -5 -18 -21 -18 -34 0 -22 -4 -25 -37 -25 -31 0 -43
-6 -65 -34 -15 -19 -30 -46 -34 -61 -4 -17 -19 -32 -40 -43 -41 -19 -42 -38
-6 -111 27 -54 55 -82 68 -68 4 4 3 35 -3 70 -12 71 -9 84 20 93 11 4 39 20
61 36 32 23 49 28 81 26 39 -3 40 -2 43 31 2 23 -2 37 -12 43 -20 11 -21 38
-1 38 16 0 38 34 28 44 -10 9 -66 7 -85 -5z"/>
<path d="M1100 6061 c-47 -10 -101 -25 -120 -33 -19 -9 -51 -19 -70 -23 -22
-4 -50 -23 -75 -49 -23 -22 -67 -61 -100 -86 -81 -62 -160 -145 -195 -205 -16
-28 -43 -61 -58 -72 -17 -13 -32 -35 -36 -54 -3 -18 -15 -42 -25 -54 -17 -18
-55 -102 -83 -180 -6 -16 -21 -52 -34 -80 -12 -27 -26 -61 -29 -75 -4 -14 -16
-43 -27 -64 -11 -22 -26 -75 -34 -117 -7 -43 -25 -106 -39 -141 -18 -43 -34
-118 -50 -236 -28 -195 -48 -249 -97 -259 l-28 -5 0 -359 c0 -281 3 -359 13
-358 56 3 126 28 156 57 29 28 32 36 27 66 -8 40 4 51 122 110 69 35 112 40
112 15 0 -5 11 -9 24 -9 35 0 142 117 156 172 20 76 63 151 90 159 63 16 121
53 148 93 34 51 64 56 116 21 34 -23 42 -25 72 -15 47 16 74 54 74 105 0 60
29 95 79 95 26 0 44 7 59 23 24 26 56 109 78 207 8 36 21 97 30 135 12 55 16
143 18 405 1 244 5 341 14 357 15 26 17 388 3 426 -12 31 -26 36 -124 42 -57
3 -108 -2 -167 -14z"/>
<path d="M2143 6058 c-25 -27 -28 -52 -13 -93 6 -15 17 -69 24 -120 8 -51 22
-108 32 -126 9 -19 25 -65 35 -104 29 -118 67 -248 82 -285 9 -19 20 -70 26
-114 16 -115 112 -477 133 -503 19 -23 46 -13 75 26 72 101 116 152 142 166
16 8 32 24 36 35 4 11 25 36 49 55 23 20 50 50 59 68 10 18 33 42 52 55 19 12
35 26 35 31 0 5 15 14 34 21 22 7 38 21 46 40 7 16 21 32 31 35 11 4 39 23 64
43 24 20 57 46 74 57 16 11 66 48 111 82 86 67 167 113 199 113 11 0 28 9 38
19 10 11 31 24 46 30 39 15 33 36 -14 55 -23 9 -71 35 -107 56 -36 22 -72 40
-79 40 -14 0 -152 56 -283 115 -41 18 -110 43 -153 54 -43 12 -104 35 -137 51
-34 17 -89 34 -132 40 -40 6 -111 25 -158 42 -71 25 -105 31 -205 35 -117 5
-120 5 -142 -19z"/>
<path d="M3675 5513 c-11 -3 -47 -20 -80 -38 -33 -19 -99 -47 -148 -63 -95
-32 -148 -63 -214 -126 -40 -37 -86 -68 -180 -117 -24 -13 -43 -27 -43 -32 0
-5 -18 -26 -40 -48 -22 -22 -40 -44 -40 -49 0 -5 -16 -24 -36 -42 -20 -18 -43
-46 -51 -63 -8 -16 -30 -46 -48 -65 -18 -19 -38 -52 -45 -72 -6 -21 -25 -47
-40 -58 -18 -13 -34 -36 -40 -61 -6 -22 -27 -58 -47 -79 -45 -51 -80 -159 -89
-277 -5 -77 -3 -95 16 -143 18 -43 25 -93 35 -235 9 -124 18 -192 30 -220 10
-23 19 -79 22 -130 4 -59 12 -103 24 -127 13 -26 19 -59 19 -110 0 -129 20
-391 36 -472 9 -43 22 -120 29 -170 15 -113 54 -186 97 -186 15 0 32 -6 38
-12 5 -7 31 -40 57 -73 70 -90 114 -135 156 -156 38 -20 46 -36 25 -57 -25
-25 4 -24 54 1 l52 27 23 -22 c24 -23 58 -89 87 -169 10 -29 26 -51 42 -60 25
-13 28 -12 63 29 20 23 43 42 52 42 17 0 66 -68 75 -107 4 -13 18 -31 33 -40
14 -9 50 -33 79 -52 104 -70 91 -66 152 -39 45 21 83 28 206 37 202 16 204 16
219 -102 8 -57 37 -83 84 -72 33 7 71 47 71 75 0 9 11 26 23 39 19 17 29 20
48 13 32 -12 136 -7 154 8 7 6 33 12 57 13 40 2 44 -1 60 -32 21 -43 40 -54
62 -38 15 11 15 30 4 227 -14 251 -14 258 -1 415 11 120 24 173 46 187 42 27
158 -27 207 -96 51 -71 84 -103 120 -119 19 -8 80 -54 135 -101 55 -48 125
-99 156 -115 31 -16 72 -39 90 -53 47 -34 115 -62 133 -55 10 4 16 19 16 41 0
25 -6 38 -26 51 -30 19 -49 61 -58 127 -6 40 -4 50 13 67 27 27 39 26 111 -4
65 -27 94 -30 135 -15 24 9 26 14 20 43 -3 17 -9 56 -12 85 -4 48 -2 57 21 81
17 18 30 46 37 87 13 72 22 84 63 84 41 0 49 -7 74 -56 23 -45 43 -59 61 -41
22 22 13 65 -19 87 -60 43 -73 120 -20 120 50 0 26 60 -60 150 -34 35 -78 94
-98 130 -39 70 -84 128 -174 224 -41 45 -58 72 -64 101 -4 22 -27 76 -52 120
-25 44 -61 109 -80 145 -18 36 -39 72 -46 80 -7 8 -18 30 -24 48 -6 18 -21 41
-32 50 -11 9 -39 60 -61 112 -22 52 -54 111 -70 131 -16 20 -43 67 -60 105
-17 38 -36 76 -44 84 -7 8 -20 42 -29 74 -12 47 -24 68 -55 96 -45 41 -56 64
-78 165 -9 39 -24 82 -34 97 -11 14 -19 29 -19 32 0 4 -12 25 -26 47 -23 37
-44 89 -114 289 -13 36 -33 90 -46 120 -12 30 -27 80 -34 110 -17 73 -36 110
-59 110 -23 0 -100 -60 -125 -97 -10 -15 -51 -53 -90 -83 -63 -48 -76 -55
-114 -53 -25 1 -60 12 -86 27 -23 14 -74 37 -112 51 -38 14 -78 32 -89 39 -11
7 -64 32 -117 55 -53 24 -103 50 -110 58 -33 40 -185 82 -243 66z m1430 -2922
c7 -12 -12 -24 -25 -16 -11 7 -4 25 10 25 5 0 11 -4 15 -9z"/>
<path d="M7763 3158 c-22 -27 -43 -79 -54 -128 -7 -31 -24 -65 -45 -91 -19
-22 -34 -46 -34 -53 0 -11 -14 -33 -82 -135 -22 -32 -24 -91 -4 -91 44 0 27
-92 -29 -163 -40 -50 -69 -57 -104 -23 -32 31 -61 33 -85 7 -19 -21 -14 -41 9
-41 17 0 25 -23 24 -73 -1 -58 -12 -91 -30 -95 -9 -2 -35 16 -58 39 -46 47
-57 45 -77 -14 -12 -35 -3 -79 23 -109 8 -9 19 -36 24 -60 11 -46 22 -58 57
-58 26 0 27 -6 7 -54 -17 -40 -29 -44 -58 -19 -18 17 -19 17 -33 -2 -8 -10
-14 -27 -14 -36 0 -11 -24 -32 -60 -54 -64 -39 -80 -59 -80 -99 0 -23 4 -26
37 -26 30 0 45 8 87 50 103 101 158 151 182 167 30 19 89 139 104 211 9 41 19
58 45 78 46 35 75 88 120 219 20 61 41 115 46 121 5 7 16 52 24 101 8 49 26
119 40 156 14 39 25 88 25 117 0 27 5 72 11 100 11 54 2 83 -18 58z"/>
<path d="M1130 3008 c-5 -13 -22 -54 -39 -93 -21 -51 -31 -95 -36 -160 -4 -49
-12 -96 -17 -102 -12 -15 -128 -18 -128 -3 0 5 7 28 16 50 9 22 14 51 10 63
-6 27 -43 77 -56 77 -14 0 -49 -40 -71 -80 -10 -19 -26 -45 -35 -57 -15 -20
-14 -23 11 -45 14 -13 43 -25 63 -28 35 -5 37 -7 46 -53 12 -68 -8 -97 -68
-97 -28 0 -48 6 -57 16 -18 22 -40 83 -42 119 -2 26 -6 30 -32 30 l-30 0 1
-90 c1 -81 3 -95 29 -132 51 -78 43 -188 -16 -218 -31 -16 -31 -19 -29 -107 1
-46 -3 -61 -20 -78 -21 -21 -22 -21 -42 -3 -21 18 -21 18 -14 -22 4 -22 24
-77 44 -121 30 -65 58 -105 141 -197 57 -63 114 -134 128 -158 13 -24 38 -57
54 -74 16 -16 37 -41 47 -54 13 -16 25 -22 36 -18 45 18 100 227 117 442 4 61
12 167 17 238 5 70 14 133 20 140 6 7 21 87 32 177 22 168 21 240 -6 292 -9
18 -15 74 -17 170 -4 138 -15 198 -37 198 -6 0 -15 -10 -20 -22z"/>
<path d="M352 2478 c4 -46 28 -49 28 -4 0 26 -4 36 -16 36 -11 0 -14 -8 -12
-32z"/>
<path d="M549 2413 c-9 -10 -22 -35 -29 -55 -13 -42 -13 -42 -42 -27 -51 27
-64 -63 -23 -155 24 -53 67 -106 86 -106 5 0 9 24 9 53 0 48 3 56 36 88 45 42
64 85 64 142 0 49 -12 64 -56 73 -21 4 -34 1 -45 -13z"/>
<path d="M7225 2409 c-4 -6 -4 -13 -1 -16 8 -8 36 5 36 17 0 13 -27 13 -35 -1z"/>
<path d="M4674 1749 c-10 -18 13 -32 40 -25 37 9 34 36 -3 36 -17 0 -33 -5
-37 -11z"/>
<path d="M6826 1712 c-13 -12 -5 -22 19 -22 14 0 25 4 25 9 0 10 -36 21 -44
13z"/>
<path d="M2832 1495 c-11 -14 -25 -48 -32 -75 -7 -30 -20 -54 -31 -61 -17 -8
-23 -3 -47 35 -15 25 -32 46 -39 46 -16 0 -61 -55 -78 -98 -9 -19 -20 -85 -25
-146 -5 -62 -19 -138 -29 -169 -11 -31 -29 -101 -41 -154 -29 -133 -48 -200
-75 -253 -12 -25 -26 -61 -30 -80 -4 -19 -16 -52 -26 -72 -24 -47 -24 -93 0
-117 10 -10 49 -29 87 -41 38 -13 87 -33 109 -45 37 -21 226 -75 264 -75 9 0
40 -11 70 -25 30 -14 96 -32 148 -40 52 -7 122 -23 156 -35 34 -11 81 -25 105
-31 31 -7 45 -17 52 -35 l10 -24 625 0 c517 0 625 2 625 13 0 8 8 21 18 30 30
27 170 75 240 82 76 8 158 39 172 66 21 38 1 136 -52 264 -14 33 -33 103 -43
155 -17 94 -38 160 -51 160 -4 0 -16 -10 -28 -22 -12 -13 -34 -32 -49 -43 -20
-15 -30 -34 -37 -74 -17 -92 -48 -121 -129 -121 -48 0 -65 19 -59 67 6 48 -34
171 -63 196 -29 23 -111 22 -184 -3 -69 -24 -181 -26 -240 -5 -22 8 -54 15
-72 15 -34 0 -78 42 -69 67 3 7 1 15 -4 18 -20 13 -115 14 -147 3 -27 -10 -35
-9 -50 4 -10 9 -38 26 -62 38 -38 19 -52 21 -117 15 -84 -8 -99 3 -69 49 16
24 16 28 1 51 -23 35 -51 47 -91 39 -29 -5 -35 -11 -35 -31 0 -13 7 -38 16
-55 16 -31 9 -47 -22 -48 -23 0 -67 45 -86 89 -25 59 -62 98 -107 112 -20 6
-47 22 -61 34 -14 13 -43 32 -66 43 -44 22 -44 22 -91 167 -28 84 -32 91 -74
117 -55 33 -63 34 -87 3z m1599 -975 c14 -8 19 -21 19 -55 0 -75 -44 -93 -110
-46 -52 37 -28 111 36 111 19 0 44 -5 55 -10z"/>
</g>
</svg>
